<svg width="243" height="50" viewBox="0 0 243 50" fill="none" xmlns="http://www.w3.org/2000/svg">
<g clip-path="url(#clip0_347_106)">
<rect width="3" height="50" transform="translate(190)" fill="white"/>
<path d="M242.803 0H192.803V50H242.803V0Z" fill="#D82D20"/>
<path d="M235.571 25.0044C235.571 34.821 227.615 42.7765 217.799 42.7765C207.982 42.7765 200.026 34.821 200.026 25.0044C200.026 15.1879 207.982 7.23233 217.799 7.23233C227.615 7.23233 235.571 15.1879 235.571 25.0044Z" fill="white"/>
<path d="M208.476 18.9893C208.476 18.9893 208.45 16.3697 210.628 16.3697C213.062 16.3697 224.634 16.3697 225.066 16.3697C225.56 16.3609 227.254 16.8637 227.254 18.954C227.254 20.9208 226.036 21.6352 225.146 21.6352C224.255 21.6352 220.586 21.6352 220.586 21.6352V34.3182C220.586 35.0238 220.233 36.5849 217.781 36.5849C215.329 36.5849 215.038 35.0415 215.038 34.3271V21.6529C212.63 21.6529 211.554 21.6705 210.637 21.6529C209.614 21.6264 208.45 20.815 208.485 19.0069" fill="#D82D20"/>
<path d="M190.686 0V50H0V0" fill="#D82D20"/>
<path d="M97.5304 19.8801V29.7407H95.7929V19.8801H92.6001V18.3983H100.714V19.8801H97.5304Z" fill="white"/>
<path d="M105.08 29.7407V28.9204C105.08 28.9204 104.463 29.8906 102.884 29.8906C101.508 29.8906 100.582 29.1409 100.582 27.4916V22.9847H102.011V25.6218C102.011 26.689 102.037 27.0947 102.082 27.324C102.24 28.2589 102.734 28.5412 103.378 28.5412C104.022 28.5412 104.604 28.2237 104.869 27.4828C105.001 27.1212 105.071 26.4332 105.071 25.269V22.9758H106.571V29.7319H105.071L105.08 29.7407Z" fill="white"/>
<path d="M112.665 24.8457C112.665 24.8457 112.172 24.4135 111.528 24.4135C111.069 24.4135 110.619 24.5987 110.399 25.075C110.196 25.5248 110.143 26.248 110.143 27.2976V29.7407H108.644V22.9847H110.143V23.9548C110.143 23.9548 110.875 22.9053 111.951 22.9053C112.771 22.9053 113.424 23.4521 113.424 23.4521L112.674 24.8545L112.665 24.8457Z" fill="white"/>
<path d="M114.297 19.7125H115.796V21.4059H114.297V19.7125ZM114.297 22.9935H115.796V29.7495H114.297V22.9935Z" fill="white"/>
<path d="M120.603 25.7717C121.529 26.1157 122.447 26.6714 122.447 27.9062C122.447 29.3791 121.265 29.97 119.818 29.97C118.487 29.97 117.261 29.2644 117.261 29.2644L117.807 27.9944C117.807 27.9944 118.857 28.7176 119.933 28.7176C120.524 28.7176 120.974 28.5412 120.974 27.9855C120.974 27.4299 120.498 27.2535 119.818 27.0065L119.122 26.7596C118.266 26.4685 117.463 25.9481 117.463 24.7398C117.463 23.5315 118.513 22.7642 119.889 22.7642C121.45 22.7642 122.332 23.4433 122.332 23.4433L121.609 24.5281C121.609 24.5281 120.912 24.0254 119.995 24.0254C119.377 24.0254 118.928 24.2106 118.928 24.7045C118.928 25.0926 119.227 25.269 119.907 25.5248L120.603 25.7894V25.7717Z" fill="white"/>
<path d="M127.412 29.7142C127.412 29.7142 127.051 29.8465 126.627 29.8465C125.604 29.8465 124.308 29.3438 124.308 27.4475V24.2459H123.179V22.9935H124.308V20.471H125.807V22.9935H127.174V24.2459H125.807V26.8919C125.807 28.109 126.195 28.5059 126.892 28.5059C127.104 28.5059 127.412 28.4795 127.412 28.4795V29.7231V29.7142Z" fill="white"/>
<path d="M130.552 24.2459V29.7495H129.053V24.2459H127.924V22.9935H129.053V20.8414C129.053 19.1568 129.758 18.3454 131.249 18.3454C131.655 18.3454 131.866 18.4071 131.866 18.4071V19.6772H131.575C130.808 19.6772 130.552 19.8095 130.552 20.9473V22.9935H131.928V24.2459H130.552Z" fill="white"/>
<path d="M136.012 29.9347C133.727 29.9347 132.404 28.5059 132.404 26.398C132.404 24.29 133.877 22.7994 136.162 22.7994C138.446 22.7994 139.751 24.1842 139.751 26.3627C139.751 28.5412 138.252 29.9259 136.012 29.9259M136.126 24.0166C134.874 24.0166 133.921 24.9691 133.921 26.4244C133.921 28.012 134.821 28.6911 136.091 28.6911C137.361 28.6911 138.243 27.7562 138.243 26.3539C138.243 24.9515 137.379 24.0166 136.135 24.0166" fill="white"/>
<path d="M145.273 24.8457C145.273 24.8457 144.779 24.4135 144.135 24.4135C143.676 24.4135 143.226 24.5987 143.006 25.075C142.803 25.5248 142.741 26.248 142.741 27.2976V29.7407H141.242V22.9847H142.741V23.9548C142.741 23.9548 143.473 22.9053 144.549 22.9053C145.37 22.9053 146.022 23.4521 146.022 23.4521L145.273 24.8545V24.8457Z" fill="white"/>
<path d="M147.707 26.6714C147.707 28.0737 148.633 28.7529 149.771 28.7529C150.538 28.7529 151.341 28.4089 151.923 27.7562L152.743 28.797C151.932 29.5643 150.811 29.97 149.709 29.97C147.892 29.97 146.128 29.0439 146.128 26.4332C146.128 24.2724 147.619 22.9141 149.621 22.9141C151.252 22.9141 152.884 23.8666 152.884 26.2921V26.6802H147.698L147.707 26.6714ZM151.314 25.613C151.217 24.6163 150.564 24.0695 149.585 24.0695C148.606 24.0695 147.954 24.5634 147.724 25.613H151.323H151.314Z" fill="white"/>
<path d="M158.952 29.7407V27.1035C158.952 26.0363 158.926 25.613 158.882 25.3837C158.723 24.4576 158.229 24.1842 157.585 24.1842C156.941 24.1842 156.359 24.5017 156.095 25.2425C155.936 25.6924 155.892 26.3009 155.892 27.4563V29.7495H154.392V22.9935H155.892V23.8137C155.892 23.8137 156.509 22.8435 158.088 22.8435C159.455 22.8435 160.452 23.5932 160.452 25.2425V29.7495H158.952V29.7407Z" fill="white"/>
<path d="M162.401 19.7125H163.9V21.4059H162.401V19.7125ZM162.401 22.9935H163.9V29.7495H162.401V22.9935Z" fill="white"/>
<path d="M170.524 29.7407V27.1035C170.524 26.0363 170.498 25.613 170.453 25.3837C170.295 24.4576 169.801 24.1842 169.157 24.1842C168.513 24.1842 167.931 24.5017 167.666 25.2425C167.508 25.6924 167.463 26.3009 167.463 27.4563V29.7495H165.964V22.9935H167.463V23.8137C167.463 23.8137 168.081 22.8435 169.66 22.8435C171.027 22.8435 172.023 23.5932 172.023 25.2425V29.7495H170.524V29.7407Z" fill="white"/>
<path d="M180.067 29.5819C180.067 31.4694 178.85 32.5807 176.857 32.5807C174.863 32.5807 173.911 31.7693 173.911 31.7693L174.634 30.5609C174.634 30.5609 175.472 31.2842 176.795 31.2842C178.118 31.2842 178.559 30.7903 178.559 29.7407V29.1498C178.559 29.1498 177.95 29.9259 176.539 29.9259C174.793 29.9259 173.408 28.6999 173.408 26.5479C173.408 24.3958 174.863 22.8965 176.733 22.8965C177.871 22.8965 178.55 23.5756 178.55 23.5756V22.9847H180.067V29.5819ZM176.804 24.2547C175.631 24.2547 174.969 25.1896 174.969 26.5655C174.969 28.0561 175.851 28.647 176.804 28.647C177.827 28.647 178.638 27.9414 178.638 26.398C178.638 24.9691 177.8 24.2635 176.804 24.2635" fill="white"/>
<path d="M16.017 18.363C18.3719 18.363 20.5328 18.5659 22.1204 20.0829C23.0553 20.9737 23.6197 22.2791 23.6197 24.0519C23.6197 25.4807 23.0905 26.9801 21.944 28.0649C20.8767 29.0616 19.2715 29.7142 17.0754 29.7142H13.9531V18.363H16.0082H16.017ZM16.8813 28.3119C18.61 28.3119 19.9595 27.8356 20.7974 26.9007C21.4324 26.1775 21.7764 25.1985 21.7764 23.9284C21.7764 21.0972 19.6243 19.8007 16.8284 19.8007H15.6995V28.3207H16.8813V28.3119Z" fill="white"/>
<path d="M26.107 26.6361C26.107 28.0385 27.0331 28.7176 28.1708 28.7176C28.9381 28.7176 29.7496 28.3736 30.3229 27.7209L31.1431 28.7617C30.3317 29.529 29.2116 29.9347 28.1091 29.9347C26.2922 29.9347 24.5282 29.0086 24.5282 26.398C24.5282 24.2371 26.0188 22.8788 28.0209 22.8788C29.6526 22.8788 31.2842 23.8314 31.2842 26.2568V26.6449H26.0981L26.107 26.6361ZM29.7143 25.5777C29.6173 24.5811 28.9646 24.0342 27.9856 24.0342C27.0066 24.0342 26.3539 24.5281 26.1246 25.5777H29.7231H29.7143Z" fill="white"/>
<path d="M37.3347 29.7142V27.0683C37.3347 26.0011 37.3082 25.5777 37.2641 25.3484C37.1054 24.4223 36.6114 24.1489 35.9676 24.1489C35.3237 24.1489 34.7416 24.4664 34.477 25.2073C34.3183 25.6571 34.2742 26.2657 34.2742 27.4122V29.7054H32.7748V22.9494H34.2742V23.7696C34.2742 23.7696 34.8916 22.7994 36.4703 22.7994C37.8462 22.7994 38.834 23.5491 38.834 25.1985V29.7054H37.3347V29.7142Z" fill="white"/>
<path d="M46.0134 22.2791V29.7142H44.3729V18.0808L52.1697 25.8423V18.3719H53.8543V30.0494L46.0134 22.2791Z" fill="white"/>
<path d="M59.1993 29.8995C56.9149 29.8995 55.5919 28.4706 55.5919 26.3627C55.5919 24.2547 57.0648 22.7642 59.3492 22.7642C61.6336 22.7642 62.9477 24.1489 62.9477 26.3274C62.9477 28.5059 61.4483 29.8906 59.2081 29.8906M59.3227 23.9813C58.0703 23.9813 57.1178 24.9339 57.1178 26.3891C57.1178 27.9767 58.0086 28.6559 59.2875 28.6559C60.5663 28.6559 61.4395 27.7209 61.4395 26.3186C61.4395 24.9162 60.5752 23.9813 59.3316 23.9813" fill="white"/>
<path d="M68.4601 24.8192C68.4601 24.8192 67.9662 24.387 67.3223 24.387C66.8637 24.387 66.4139 24.5722 66.1934 25.0485C65.9905 25.4983 65.9376 26.2216 65.9376 27.2711V29.7142H64.4382V22.9582H65.9376V23.9284C65.9376 23.9284 66.6697 22.8788 67.7457 22.8788C68.5659 22.8788 69.2186 23.4256 69.2186 23.4256L68.4689 24.828L68.4601 24.8192Z" fill="white"/>
<path d="M72.8259 25.7453C73.752 26.0893 74.6693 26.6449 74.6693 27.8797C74.6693 29.3526 73.4874 29.9436 72.0409 29.9436C70.7091 29.9436 69.4832 29.238 69.4832 29.238L70.03 27.9679C70.03 27.9679 71.0796 28.6911 72.1556 28.6911C72.5613 28.6911 73.1963 28.5147 73.1963 27.9591C73.1963 27.4211 72.7201 27.227 72.0409 26.9801L71.3442 26.7331C70.4886 26.4421 69.686 25.9217 69.686 24.7134C69.686 23.505 70.7356 22.7377 72.1115 22.7377C73.6726 22.7377 74.5546 23.4168 74.5546 23.4168L73.8314 24.5017C73.8314 24.5017 73.1346 23.9989 72.2173 23.9989C71.5999 23.9989 71.1501 24.1842 71.1501 24.6781C71.1501 25.0662 71.45 25.2426 72.1291 25.4983L72.8259 25.7629V25.7453Z" fill="white"/>
<path d="M80.3758 29.7142L78.1708 26.6096L77.6504 27.1212V29.7142H76.1422V18.3719H77.6504V25.4542L80.2699 22.9582H82.2985L79.2909 25.6042L82.3955 29.7142H80.3758Z" fill="white"/>
<path d="M97.5304 19.8801V29.7407H95.7929V19.8801H92.6001V18.3983H100.714V19.8801H97.5304Z" fill="white"/>
<path d="M105.08 29.7407V28.9204C105.08 28.9204 104.463 29.8906 102.884 29.8906C101.508 29.8906 100.582 29.1409 100.582 27.4916V22.9847H102.011V25.6218C102.011 26.689 102.037 27.0947 102.082 27.324C102.24 28.2589 102.734 28.5412 103.378 28.5412C104.022 28.5412 104.604 28.2237 104.869 27.4828C105.001 27.1212 105.071 26.4332 105.071 25.269V22.9758H106.571V29.7319H105.071L105.08 29.7407Z" fill="white"/>
<path d="M112.665 24.8457C112.665 24.8457 112.172 24.4135 111.528 24.4135C111.069 24.4135 110.619 24.5987 110.399 25.075C110.196 25.5248 110.143 26.248 110.143 27.2976V29.7407H108.644V22.9847H110.143V23.9548C110.143 23.9548 110.875 22.9053 111.951 22.9053C112.771 22.9053 113.424 23.4521 113.424 23.4521L112.674 24.8545L112.665 24.8457Z" fill="white"/>
<path d="M114.297 19.7125H115.796V21.4059H114.297V19.7125ZM114.297 22.9935H115.796V29.7495H114.297V22.9935Z" fill="white"/>
<path d="M120.603 25.7717C121.529 26.1157 122.447 26.6714 122.447 27.9062C122.447 29.3791 121.265 29.97 119.818 29.97C118.487 29.97 117.261 29.2644 117.261 29.2644L117.807 27.9944C117.807 27.9944 118.857 28.7176 119.933 28.7176C120.524 28.7176 120.974 28.5412 120.974 27.9855C120.974 27.4299 120.498 27.2535 119.818 27.0065L119.122 26.7596C118.266 26.4685 117.463 25.9481 117.463 24.7398C117.463 23.5315 118.513 22.7642 119.889 22.7642C121.45 22.7642 122.332 23.4433 122.332 23.4433L121.609 24.5281C121.609 24.5281 120.912 24.0254 119.995 24.0254C119.377 24.0254 118.928 24.2106 118.928 24.7045C118.928 25.0926 119.227 25.269 119.907 25.5248L120.603 25.7894V25.7717Z" fill="white"/>
<path d="M127.412 29.7142C127.412 29.7142 127.051 29.8465 126.627 29.8465C125.604 29.8465 124.308 29.3438 124.308 27.4475V24.2459H123.179V22.9935H124.308V20.471H125.807V22.9935H127.174V24.2459H125.807V26.8919C125.807 28.109 126.195 28.5059 126.892 28.5059C127.104 28.5059 127.412 28.4795 127.412 28.4795V29.7231V29.7142Z" fill="white"/>
<path d="M130.552 24.2459V29.7495H129.053V24.2459H127.924V22.9935H129.053V20.8414C129.053 19.1568 129.758 18.3454 131.249 18.3454C131.655 18.3454 131.866 18.4071 131.866 18.4071V19.6772H131.575C130.808 19.6772 130.552 19.8095 130.552 20.9473V22.9935H131.928V24.2459H130.552Z" fill="white"/>
<path d="M136.012 29.9347C133.727 29.9347 132.404 28.5059 132.404 26.398C132.404 24.29 133.877 22.7994 136.162 22.7994C138.446 22.7994 139.751 24.1842 139.751 26.3627C139.751 28.5412 138.252 29.9259 136.012 29.9259M136.126 24.0166C134.874 24.0166 133.921 24.9691 133.921 26.4244C133.921 28.012 134.821 28.6911 136.091 28.6911C137.361 28.6911 138.243 27.7562 138.243 26.3539C138.243 24.9515 137.379 24.0166 136.135 24.0166" fill="white"/>
<path d="M145.273 24.8457C145.273 24.8457 144.779 24.4135 144.135 24.4135C143.676 24.4135 143.226 24.5987 143.006 25.075C142.803 25.5248 142.741 26.248 142.741 27.2976V29.7407H141.242V22.9847H142.741V23.9548C142.741 23.9548 143.473 22.9053 144.549 22.9053C145.37 22.9053 146.022 23.4521 146.022 23.4521L145.273 24.8545V24.8457Z" fill="white"/>
<path d="M147.707 26.6714C147.707 28.0737 148.633 28.7529 149.771 28.7529C150.538 28.7529 151.341 28.4089 151.923 27.7562L152.743 28.797C151.932 29.5643 150.811 29.97 149.709 29.97C147.892 29.97 146.128 29.0439 146.128 26.4332C146.128 24.2724 147.619 22.9141 149.621 22.9141C151.252 22.9141 152.884 23.8666 152.884 26.2921V26.6802H147.698L147.707 26.6714ZM151.314 25.613C151.217 24.6163 150.564 24.0695 149.585 24.0695C148.606 24.0695 147.954 24.5634 147.724 25.613H151.323H151.314Z" fill="white"/>
<path d="M158.952 29.7407V27.1035C158.952 26.0363 158.926 25.613 158.882 25.3837C158.723 24.4576 158.229 24.1842 157.585 24.1842C156.941 24.1842 156.359 24.5017 156.095 25.2425C155.936 25.6924 155.892 26.3009 155.892 27.4563V29.7495H154.392V22.9935H155.892V23.8137C155.892 23.8137 156.509 22.8435 158.088 22.8435C159.455 22.8435 160.452 23.5932 160.452 25.2425V29.7495H158.952V29.7407Z" fill="white"/>
<path d="M162.401 19.7125H163.9V21.4059H162.401V19.7125ZM162.401 22.9935H163.9V29.7495H162.401V22.9935Z" fill="white"/>
<path d="M170.524 29.7407V27.1035C170.524 26.0363 170.498 25.613 170.453 25.3837C170.295 24.4576 169.801 24.1842 169.157 24.1842C168.513 24.1842 167.931 24.5017 167.666 25.2425C167.508 25.6924 167.463 26.3009 167.463 27.4563V29.7495H165.964V22.9935H167.463V23.8137C167.463 23.8137 168.081 22.8435 169.66 22.8435C171.027 22.8435 172.023 23.5932 172.023 25.2425V29.7495H170.524V29.7407Z" fill="white"/>
<path d="M180.067 29.5819C180.067 31.4694 178.85 32.5807 176.857 32.5807C174.863 32.5807 173.911 31.7693 173.911 31.7693L174.634 30.5609C174.634 30.5609 175.472 31.2842 176.795 31.2842C178.118 31.2842 178.559 30.7903 178.559 29.7407V29.1498C178.559 29.1498 177.95 29.9259 176.539 29.9259C174.793 29.9259 173.408 28.6999 173.408 26.5479C173.408 24.3958 174.863 22.8965 176.733 22.8965C177.871 22.8965 178.55 23.5756 178.55 23.5756V22.9847H180.067V29.5819ZM176.804 24.2547C175.631 24.2547 174.969 25.1896 174.969 26.5655C174.969 28.0561 175.851 28.647 176.804 28.647C177.827 28.647 178.638 27.9414 178.638 26.398C178.638 24.9691 177.8 24.2635 176.804 24.2635" fill="white"/>
<path d="M16.017 18.363C18.3719 18.363 20.5328 18.5659 22.1204 20.0829C23.0553 20.9737 23.6197 22.2791 23.6197 24.0519C23.6197 25.4807 23.0905 26.9801 21.944 28.0649C20.8767 29.0616 19.2715 29.7142 17.0754 29.7142H13.9531V18.363H16.0082H16.017ZM16.8813 28.3119C18.61 28.3119 19.9595 27.8356 20.7974 26.9007C21.4324 26.1775 21.7764 25.1985 21.7764 23.9284C21.7764 21.0972 19.6243 19.8007 16.8284 19.8007H15.6995V28.3207H16.8813V28.3119Z" fill="white"/>
<path d="M26.107 26.6361C26.107 28.0385 27.0331 28.7176 28.1708 28.7176C28.9381 28.7176 29.7496 28.3736 30.3229 27.7209L31.1431 28.7617C30.3317 29.529 29.2116 29.9347 28.1091 29.9347C26.2922 29.9347 24.5282 29.0086 24.5282 26.398C24.5282 24.2371 26.0188 22.8788 28.0209 22.8788C29.6526 22.8788 31.2842 23.8314 31.2842 26.2568V26.6449H26.0981L26.107 26.6361ZM29.7143 25.5777C29.6173 24.5811 28.9646 24.0342 27.9856 24.0342C27.0066 24.0342 26.3539 24.5281 26.1246 25.5777H29.7231H29.7143Z" fill="white"/>
<path d="M37.3347 29.7142V27.0683C37.3347 26.0011 37.3082 25.5777 37.2641 25.3484C37.1054 24.4223 36.6114 24.1489 35.9676 24.1489C35.3237 24.1489 34.7416 24.4664 34.477 25.2073C34.3183 25.6571 34.2742 26.2657 34.2742 27.4122V29.7054H32.7748V22.9494H34.2742V23.7696C34.2742 23.7696 34.8916 22.7994 36.4703 22.7994C37.8462 22.7994 38.834 23.5491 38.834 25.1985V29.7054H37.3347V29.7142Z" fill="white"/>
<path d="M46.0134 22.2791V29.7142H44.3729V18.0808L52.1697 25.8423V18.3719H53.8543V30.0494L46.0134 22.2791Z" fill="white"/>
<path d="M59.1993 29.8995C56.9149 29.8995 55.5919 28.4706 55.5919 26.3627C55.5919 24.2547 57.0648 22.7642 59.3492 22.7642C61.6336 22.7642 62.9477 24.1489 62.9477 26.3274C62.9477 28.5059 61.4483 29.8906 59.2081 29.8906M59.3227 23.9813C58.0703 23.9813 57.1178 24.9339 57.1178 26.3891C57.1178 27.9767 58.0086 28.6559 59.2875 28.6559C60.5663 28.6559 61.4395 27.7209 61.4395 26.3186C61.4395 24.9162 60.5752 23.9813 59.3316 23.9813" fill="white"/>
<path d="M68.4601 24.8192C68.4601 24.8192 67.9662 24.387 67.3223 24.387C66.8637 24.387 66.4139 24.5722 66.1934 25.0485C65.9905 25.4983 65.9376 26.2216 65.9376 27.2711V29.7142H64.4382V22.9582H65.9376V23.9284C65.9376 23.9284 66.6697 22.8788 67.7457 22.8788C68.5659 22.8788 69.2186 23.4256 69.2186 23.4256L68.4689 24.828L68.4601 24.8192Z" fill="white"/>
<path d="M72.8259 25.7453C73.752 26.0893 74.6693 26.6449 74.6693 27.8797C74.6693 29.3526 73.4874 29.9436 72.0409 29.9436C70.7091 29.9436 69.4832 29.238 69.4832 29.238L70.03 27.9679C70.03 27.9679 71.0796 28.6911 72.1556 28.6911C72.5613 28.6911 73.1963 28.5147 73.1963 27.9591C73.1963 27.4211 72.7201 27.227 72.0409 26.9801L71.3442 26.7331C70.4886 26.4421 69.686 25.9217 69.686 24.7134C69.686 23.505 70.7356 22.7377 72.1115 22.7377C73.6726 22.7377 74.5546 23.4168 74.5546 23.4168L73.8314 24.5017C73.8314 24.5017 73.1346 23.9989 72.2173 23.9989C71.5999 23.9989 71.1501 24.1842 71.1501 24.6781C71.1501 25.0662 71.45 25.2426 72.1291 25.4983L72.8259 25.7629V25.7453Z" fill="white"/>
<path d="M80.3758 29.7142L78.1708 26.6096L77.6504 27.1212V29.7142H76.1422V18.3719H77.6504V25.4542L80.2699 22.9582H82.2985L79.2909 25.6042L82.3955 29.7142H80.3758Z" fill="white"/>
<path d="M84.0272 26.6361C84.0272 28.0385 84.9533 28.7176 86.0911 28.7176C86.8584 28.7176 87.661 28.3736 88.2432 27.7209L89.0634 28.7617C88.252 29.529 87.1318 29.9347 86.0294 29.9347C84.2125 29.9347 82.4485 29.0086 82.4485 26.398C82.4485 24.2371 83.939 22.8788 85.9412 22.8788C87.5728 22.8788 89.2045 23.8314 89.2045 26.2568V26.6449H84.0184L84.0272 26.6361ZM87.6346 25.5777C87.5376 24.5811 86.8849 24.0342 85.9059 24.0342C84.9269 24.0342 84.2742 24.5281 84.0449 25.5777H87.6434H87.6346Z" fill="white"/>
</g>
<defs>
<clipPath id="clip0_347_106">
<rect width="242.803" height="50" fill="white"/>
</clipPath>
</defs>
</svg>
